<?xml version="1.0" encoding="utf-8"?>
<!-- Generator: Adobe Illustrator 23.0.5, SVG Export Plug-In . SVG Version: 6.00 Build 0)  -->
<svg version="1.1" id="Layer_1" xmlns="http://www.w3.org/2000/svg" xmlns:xlink="http://www.w3.org/1999/xlink" x="0px" y="0px"
	 viewBox="0 0 2000 2000" style="enable-background:new 0 0 2000 2000;" xml:space="preserve">
<style type="text/css">
	.st0{fill:url(#SVGID_1_);}
	.st1{fill:url(#SVGID_2_);}
	.st2{fill:url(#SVGID_3_);}
	.st3{fill:url(#SVGID_4_);}
	.st4{fill:url(#SVGID_5_);}
	.st5{fill:url(#SVGID_6_);}
	.st6{fill:url(#SVGID_7_);}
	.st7{fill:url(#SVGID_8_);}
	.st8{fill:url(#SVGID_9_);}
	.st9{fill:url(#SVGID_10_);}
	.st10{fill:url(#SVGID_11_);}
	.st11{fill:url(#SVGID_12_);}
	.st12{fill:url(#SVGID_13_);}
	.st13{fill:url(#SVGID_14_);}
	.st14{fill:url(#SVGID_15_);}
	.st15{fill:url(#SVGID_16_);}
	.st16{fill:url(#SVGID_17_);}
	.st17{fill:url(#SVGID_18_);}
	.st18{fill:url(#SVGID_19_);}
	.st19{fill:url(#SVGID_20_);}
	.st20{fill:url(#SVGID_21_);}
	.st21{fill:url(#SVGID_22_);}
	.st22{fill:url(#SVGID_23_);}
	.st23{fill:url(#SVGID_24_);}
	.st24{fill:url(#SVGID_25_);}
	.st25{fill:url(#SVGID_26_);}
	.st26{fill:url(#SVGID_27_);}
</style>
<g>
	<path d="M616.6,1139.1c9.5,0,18.2-2.3,26.2-6.8c7.9-4.5,14.4-10.6,19.5-18.1l19.4,14.5c-7.4,10.1-16.7,18.1-27.9,24
		c-11.2,5.9-23.6,8.9-37.1,8.9c-11.1,0-21.6-2.1-31.4-6.5c-9.8-4.3-18.3-10.1-25.6-17.5c-7.3-7.3-13-16-17.3-25.8
		c-4.2-9.9-6.3-20.4-6.3-31.7c0-11.3,2.1-21.9,6.3-31.7c4.2-9.9,10-18.5,17.3-25.8c7.3-7.3,15.8-13.2,25.6-17.5
		c9.8-4.3,20.3-6.5,31.4-6.5c13.5,0,25.9,3,37.1,8.9c11.2,5.9,20.5,14,27.9,24l-19.4,14.5c-5-7.6-11.5-13.6-19.5-18.1
		c-7.9-4.5-16.7-6.8-26.2-6.8c-7.7,0-15,1.6-21.7,4.7c-6.8,3.1-12.7,7.3-17.7,12.7c-5,5.3-9.1,11.6-12,18.7
		c-3,7.1-4.5,14.8-4.5,22.9c0,8.2,1.5,15.8,4.5,22.9c3,7.1,7,13.4,12,18.7c5,5.3,10.9,9.6,17.7,12.7
		C601.7,1137.6,608.9,1139.1,616.6,1139.1z"/>
	<path d="M700.1,1161.4l66.6-163.2l66.6,163.2H809l-4.9-12.9h-74.6l-5.1,12.9H700.1z M737.5,1127.6h58.3l-29.2-74.8L737.5,1127.6z"
		/>
	<path d="M874.2,1162.1h-22.5V995.8L957.2,1122V998.7h22.5v163.4h-21.8L874.2,1059V1162.1z"/>
	<path d="M1055.2,998.4c11,0,21.3,2.2,30.8,6.5c9.6,4.3,17.9,10.2,25,17.6c7.1,7.4,12.8,16.1,16.9,25.9c4.2,9.9,6.2,20.4,6.2,31.7
		c0,11.3-2,21.9-6,31.7c-4,9.9-9.5,18.5-16.6,25.8c-7.1,7.3-15.4,13.2-25,17.5c-9.6,4.3-20.1,6.5-31.4,6.5h-57V998.4H1055.2z
		 M1052.5,1140.7c8.3,0,16-1.6,22.9-4.8c7-3.2,13-7.5,18-13c5-5.5,9-11.9,11.8-19.3c2.8-7.4,4.2-15.2,4.2-23.5
		c0-8.3-1.4-16.2-4.2-23.5c-2.8-7.4-6.8-13.8-11.9-19.3s-11.2-9.9-18.1-13c-7-3.2-14.5-4.8-22.7-4.8H1022v121.3H1052.5z"/>
	<path d="M1176.5,1138.5h66.6v23.4h-90.4V998.4h23.8V1138.5z"/>
	<path d="M1491.2,1075.7c0.1,1.5,0.1,3,0.1,4.5c0,2.1-0.1,4.1-0.2,6c-0.1,1.9-0.4,3.9-0.7,5.8c-1.3,9.8-4.3,19-9,27.5
		c-4.7,8.5-10.5,15.9-17.6,22.2c-7.1,6.2-15.1,11.1-24.2,14.7c-9.1,3.6-18.7,5.3-28.9,5.3c-11.1,0-21.6-2.1-31.5-6.5
		c-9.9-4.3-18.4-10.1-25.7-17.5c-7.3-7.3-13-16-17.3-25.8c-4.2-9.9-6.3-20.4-6.3-31.7c0-11.3,2.1-21.9,6.3-31.7
		c4.2-9.9,10-18.5,17.3-25.8c7.3-7.3,15.8-13.2,25.7-17.5c9.9-4.3,20.4-6.5,31.5-6.5c8.5,0,16.5,1.2,24.2,3.7
		c7.6,2.4,14.7,5.9,21,10.4c6.4,4.5,12.1,9.8,17,15.9c5,6.2,9,12.9,12.1,20.1h-27.4c-4.9-8.3-11.5-15-19.7-20
		c-8.2-5-17.3-7.6-27.3-7.6c-7.7,0-15,1.6-21.8,4.7c-6.8,3.1-12.8,7.3-17.8,12.7c-5,5.3-9.1,11.6-12,18.7c-3,7.1-4.5,14.8-4.5,22.9
		c0,8.2,1.5,15.8,4.5,22.9c3,7.1,7,13.4,12,18.7c5,5.3,11,9.6,17.8,12.7c6.8,3.1,14.1,4.7,21.8,4.7c6.7,0,13.1-1.2,19.1-3.6
		c6.1-2.4,11.5-5.7,16.4-9.9c4.8-4.2,8.9-9.2,12.2-15c3.3-5.8,5.7-12,7-18.7h-57V1071h57.4h24.9
		C1491,1072.7,1491.1,1074.2,1491.2,1075.7z"/>
	<path d="M1622,1072.4c-2.1,6.7-5.2,12.7-9.2,18c-4.1,5.3-9.1,9.9-15,13.6c-0.3,0.3-0.7,0.5-1.1,0.7c-0.4,0.2-0.8,0.4-1.1,0.7
		l28.7,56.5h-25.2l-25.2-49.2c-1.8,0.3-3.6,0.5-5.3,0.7c-1.8,0.1-3.7,0.2-5.8,0.2h-29.2v48.3h-23.8V998.2h53
		c6.7,0,12.9,0.9,18.8,2.6c5.9,1.7,11.2,4,16.1,7c12,7.6,20.1,18.2,24.3,31.8c0.1,0.7,0.3,1.4,0.4,2c0.1,0.6,0.4,1.3,0.7,2v1.1
		c0.3,0.7,0.5,1.6,0.6,2.5c0.1,0.9,0.2,1.8,0.3,2.7v0.2c0.1,0.9,0.2,1.8,0.2,2.7c0,0.9,0,1.9,0,2.9v0.2v0.4c0,0.9,0,1.8,0,2.7
		c0,0.9-0.1,1.8-0.2,2.7v0.4c-0.1,0.9-0.3,1.7-0.3,2.6c-0.1,0.8-0.3,1.7-0.6,2.6v0.9C1622.5,1069.8,1622.1,1071.2,1622,1072.4z
		 M1565.7,1092.6c4.9,0,9.4-1,13.5-3.1c4.1-2.1,7.6-4.8,10.6-8.3c3-3.4,5.3-7.3,7.1-11.7c1.8-4.4,2.7-9,2.7-13.7
		c0-4.6-0.9-9.2-2.7-13.6c-1.8-4.5-4.2-8.4-7.1-11.7c-3-3.3-6.5-6.1-10.6-8.2c-4.1-2.1-8.6-3.1-13.5-3.1h-31.8v73.5H1565.7z"/>
	<path d="M1666.3,1137.8h72.6v23.4h-96.2V998.7h94.6v22.9h-71v25.7v13.3v16.2h63.9v22.3h-63.9V1137.8z"/>
	<path d="M1780.9,1137.8h72.6v23.4h-96.2V998.7h94.6v22.9h-71v25.7v13.3v16.2h63.9v22.3h-63.9V1137.8z"/>
	<path d="M1894.5,1162.1H1872V995.8l105.5,126.2V998.7h22.5v163.4h-21.8l-83.7-103.1V1162.1z"/>
</g>
<g>
	<g>
		<linearGradient id="SVGID_1_" gradientUnits="userSpaceOnUse" x1="182.0322" y1="857.2714" x2="331.999" y2="1269.1802">
			<stop  offset="7.092821e-03" style="stop-color:#39C44A"/>
			<stop  offset="0.3723" style="stop-color:#39C94A"/>
			<stop  offset="1" style="stop-color:#004A37"/>
		</linearGradient>
		<path class="st0" d="M289,1012.5l-26.2-15.2l-26.2,15.2l-44.5,25.7v81.6l44.4,25.6l26.2,15.2l0,0l0,0l26.2-15.2l44.4-25.6v-81.6
			L289,1012.5z M307.2,1104.6l-44.4,25.7l0,0l0,0l-44.4-25.7v-51.3l44.5-25.7l44.4,25.7V1104.6z"/>
	</g>
	<g>
		<linearGradient id="SVGID_2_" gradientUnits="userSpaceOnUse" x1="226.7416" y1="840.9937" x2="376.7084" y2="1252.9025">
			<stop  offset="7.092821e-03" style="stop-color:#39C44A"/>
			<stop  offset="0.3723" style="stop-color:#39C94A"/>
			<stop  offset="1" style="stop-color:#004A37"/>
		</linearGradient>
		<path class="st1" d="M262.7,852.1l-49,28.3v66.9l26.2-15.1v-36.7l22.8-13.2l22.8,13.2v36.7l26.2,15.1v-66.9L262.7,852.1z
			 M285.5,953.6v30.6l-22.8,13.2L240,984.2v-30.6l-26.2,15.1v30.7l22.8,13.2l26.2,15.2l26.2-15.2l22.8-13.2v-30.7L285.5,953.6z"/>
	</g>
	<g>
		<g>
			<linearGradient id="SVGID_3_" gradientUnits="userSpaceOnUse" x1="134.0422" y1="874.7434" x2="284.009" y2="1286.6522">
				<stop  offset="7.092821e-03" style="stop-color:#39C44A"/>
				<stop  offset="0.3723" style="stop-color:#39C94A"/>
				<stop  offset="1" style="stop-color:#004A37"/>
			</linearGradient>
			<path class="st2" d="M203,923.2c-7.7-16.5-24.5-28-43.9-28c-26.7,0-48.5,21.7-48.5,48.4c0,12.3,4.6,23.5,12.2,32.1l15.6-24.1
				c-1-2.5-1.5-5.1-1.5-7.9c0-12.2,10-22.2,22.2-22.2c9.7,0,18,6.3,21,14.9c0.8,2.3,1.2,4.7,1.2,7.3c0,3.3-0.7,6.4-2,9.3
				c-3.3,7.3-10.5,12.4-18.9,12.9L144.9,990c4.5,1.4,9.3,2.1,14.3,2.1c24.1,0,44.2-17.7,47.9-40.9c0.4-2.5,0.6-5,0.6-7.6
				C207.6,936.3,206,929.4,203,923.2z"/>
		</g>
	</g>
	<g>
		<g>
			<linearGradient id="SVGID_4_" gradientUnits="userSpaceOnUse" x1="61.6641" y1="901.0947" x2="211.6309" y2="1313.0035">
				<stop  offset="7.092821e-03" style="stop-color:#39C44A"/>
				<stop  offset="0.3723" style="stop-color:#39C94A"/>
				<stop  offset="1" style="stop-color:#004A37"/>
			</linearGradient>
			<path class="st3" d="M143,992.9l-15.5,24c1,2.5,1.6,5.3,1.6,8.2c0,12.2-10,22.2-22.2,22.2c-12.2,0-22.2-10-22.2-22.2
				c0-11.7,9.1-21.3,20.6-22.1l15.6-24.2c-4.4-1.4-9.2-2.1-14-2.1c-26.7,0-48.4,21.7-48.4,48.4c0,26.7,21.7,48.4,48.4,48.4
				c16.7,0,31.4-8.4,40.1-21.3c5-7.3,8-16,8.3-25.4c0-0.6,0-1.2,0-1.7C155.3,1012.8,150.6,1001.5,143,992.9z"/>
		</g>
	</g>
	<g>
		<linearGradient id="SVGID_5_" gradientUnits="userSpaceOnUse" x1="111.3663" y1="882.9992" x2="261.3331" y2="1294.9081">
			<stop  offset="7.092821e-03" style="stop-color:#39C44A"/>
			<stop  offset="0.3723" style="stop-color:#39C94A"/>
			<stop  offset="1" style="stop-color:#004A37"/>
		</linearGradient>
		<polygon class="st4" points="211.6,1058.5 200.1,1078.9 198.7,1081.4 194.3,1078.9 192,1077.6 146.9,1052.3 134,1045.1 
			146.9,1022.2 155.2,1026.8 192,1047.5 		"/>
	</g>
	<g>
		<g>
			<linearGradient id="SVGID_6_" gradientUnits="userSpaceOnUse" x1="317.008" y1="808.1296" x2="466.9748" y2="1220.0386">
				<stop  offset="7.092821e-03" style="stop-color:#39C44A"/>
				<stop  offset="0.3723" style="stop-color:#39C94A"/>
				<stop  offset="1" style="stop-color:#004A37"/>
			</linearGradient>
			<path class="st5" d="M366.3,895.2c-19.4,0-36.2,11.5-43.9,28c-2.9,6.2-4.5,13.1-4.5,20.4c0,2.6,0.2,5.1,0.6,7.6
				c3.6,23.1,23.7,40.9,47.9,40.9c5,0,9.7-0.7,14.3-2.1L365,965.8c-8.4-0.5-15.5-5.7-18.9-12.9c-1.3-2.8-2-5.9-2-9.3
				c0-2.5,0.4-5,1.2-7.3c3-8.7,11.3-14.9,21-14.9c12.2,0,22.2,10,22.2,22.2c0,2.8-0.5,5.5-1.5,7.9l15.6,24.1
				c7.6-8.5,12.2-19.8,12.2-32C414.8,916.9,393.1,895.2,366.3,895.2z"/>
		</g>
	</g>
	<g>
		<g>
			<linearGradient id="SVGID_7_" gradientUnits="userSpaceOnUse" x1="337.0044" y1="800.8494" x2="486.9712" y2="1212.7583">
				<stop  offset="7.092821e-03" style="stop-color:#39C44A"/>
				<stop  offset="0.3723" style="stop-color:#39C94A"/>
				<stop  offset="1" style="stop-color:#004A37"/>
			</linearGradient>
			<path class="st6" d="M418.7,976.7c-4.9,0-9.6,0.7-14,2.1l15.6,24.2c11.5,0.8,20.6,10.4,20.6,22.1c0,12.2-10,22.2-22.2,22.2
				c-12.2,0-22.2-10-22.2-22.2c0-2.9,0.6-5.6,1.6-8.2l-15.5-24c-7.6,8.6-12.3,19.9-12.3,32.2c0,0.6,0,1.2,0,1.7
				c0.3,9.4,3.4,18.1,8.3,25.4c8.7,12.8,23.4,21.3,40.1,21.3c26.7,0,48.4-21.7,48.4-48.4C467.1,998.4,445.4,976.7,418.7,976.7z"/>
		</g>
	</g>
	<linearGradient id="SVGID_8_" gradientUnits="userSpaceOnUse" x1="183.8416" y1="856.6125" x2="333.8084" y2="1268.5214">
		<stop  offset="7.092821e-03" style="stop-color:#39C44A"/>
		<stop  offset="0.3723" style="stop-color:#39C94A"/>
		<stop  offset="1" style="stop-color:#004A37"/>
	</linearGradient>
	<path class="st7" d="M240,902v30.3l-26.2,15.1l-6.7,3.9l-21.5,12.4l-6.1-10.7c1.3-2.8,2-5.9,2-9.3c0-2.5-0.4-5-1.2-7.3l22.9-13.2
		l10.7-6.1L240,902z"/>
	<linearGradient id="SVGID_9_" gradientUnits="userSpaceOnUse" x1="275.0567" y1="823.4032" x2="425.0235" y2="1235.312">
		<stop  offset="7.092821e-03" style="stop-color:#39C44A"/>
		<stop  offset="0.3723" style="stop-color:#39C94A"/>
		<stop  offset="1" style="stop-color:#004A37"/>
	</linearGradient>
	<path class="st8" d="M346.2,952.9l-6.1,10.7l-21.5-12.4l-6.7-3.9l-26.2-15.1V902l26.2,15.1l10.7,6.1l22.9,13.2
		c-0.8,2.3-1.2,4.7-1.2,7.3C344.1,946.9,344.9,950.1,346.2,952.9z"/>
	<g>
		<linearGradient id="SVGID_10_" gradientUnits="userSpaceOnUse" x1="270.1587" y1="825.1864" x2="420.1255" y2="1237.0953">
			<stop  offset="7.092821e-03" style="stop-color:#39C44A"/>
			<stop  offset="0.3723" style="stop-color:#39C94A"/>
			<stop  offset="1" style="stop-color:#004A37"/>
		</linearGradient>
		<polygon class="st9" points="391.4,1045.1 378.6,1052.3 333.4,1077.6 331.1,1078.9 326.7,1081.4 325.4,1078.9 313.9,1058.5 
			333.4,1047.5 370.2,1026.9 378.6,1022.2 		"/>
	</g>
	<g>
		<linearGradient id="SVGID_11_" gradientUnits="userSpaceOnUse" x1="137.3352" y1="873.5445" x2="287.302" y2="1285.4534">
			<stop  offset="7.092821e-03" style="stop-color:#39C44A"/>
			<stop  offset="0.3723" style="stop-color:#39C94A"/>
			<stop  offset="1" style="stop-color:#004A37"/>
		</linearGradient>
		<path class="st10" d="M289,1145.4l-26.2-15.1l0,0l0,0l-26.2,15.1l-22.7,13.1v30.7l26.2,15.1v-30.6l22.7-13.1l0,0l0,0l22.7,13.1
			v30.6l26.2-15.1v-30.7L289,1145.4z M285.5,1225.6v36.7l-22.8,13.1l-22.8-13.1v-36.7l-26.2-15.1v66.9l49,28.3l49-28.3v-66.9
			L285.5,1225.6z"/>
	</g>
	<g>
		<g>
			<linearGradient id="SVGID_12_" gradientUnits="userSpaceOnUse" x1="47.063" y1="906.4106" x2="197.0298" y2="1318.3195">
				<stop  offset="7.092821e-03" style="stop-color:#39C44A"/>
				<stop  offset="0.3723" style="stop-color:#39C94A"/>
				<stop  offset="1" style="stop-color:#004A37"/>
			</linearGradient>
			<path class="st11" d="M207,1206.6c-2.6-16.6-13.7-30.5-28.7-36.9c-5.9-2.5-12.3-3.9-19.1-3.9c-5,0-9.8,0.7-14.3,2.1l15.6,24.1
				c1.6,0.1,3.1,0.3,4.5,0.7c6.4,1.7,11.6,6.3,14.3,12.2c1.3,2.8,2,5.9,2,9.3c0,2.5-0.4,5-1.2,7.3c-2.2,6.3-7.1,11.3-13.4,13.6
				c-2.4,0.9-4.9,1.3-7.6,1.3c-12.2,0-22.2-10-22.2-22.2c0-2.8,0.5-5.5,1.5-7.9v0l-15.6-24.1c-7.6,8.5-12.2,19.8-12.2,32
				c0,26.7,21.7,48.5,48.5,48.5c12.7,0,24.3-4.9,33-13c4.5-4.2,8.3-9.3,10.9-15c2.9-6.2,4.5-13.1,4.5-20.4
				C207.6,1211.6,207.4,1209.1,207,1206.6z"/>
		</g>
	</g>
	<g>
		<g>
			<linearGradient id="SVGID_13_" gradientUnits="userSpaceOnUse" x1="27.0666" y1="913.6909" x2="177.0334" y2="1325.5997">
				<stop  offset="7.092821e-03" style="stop-color:#39C44A"/>
				<stop  offset="0.3723" style="stop-color:#39C94A"/>
				<stop  offset="1" style="stop-color:#004A37"/>
			</linearGradient>
			<path class="st12" d="M155.2,1131c-0.3-9.4-3.4-18.1-8.3-25.4c-8.7-12.8-23.4-21.3-40.1-21.3c-26.7,0-48.4,21.7-48.4,48.4
				c0,26.7,21.7,48.5,48.4,48.5c4.9,0,9.6-0.7,14.1-2.1l-15.6-24.2h0c-11.5-0.8-20.6-10.4-20.6-22.1c0-12.2,10-22.2,22.2-22.2
				c12.2,0,22.2,10,22.2,22.2c0,2.9-0.6,5.6-1.6,8.2l15.5,24c7.6-8.6,12.3-19.9,12.3-32.2C155.3,1132.1,155.3,1131.6,155.2,1131z"/>
		</g>
	</g>
	<g>
		<linearGradient id="SVGID_14_" gradientUnits="userSpaceOnUse" x1="93.914" y1="889.3531" x2="243.8809" y2="1301.2621">
			<stop  offset="7.092821e-03" style="stop-color:#39C44A"/>
			<stop  offset="0.3723" style="stop-color:#39C94A"/>
			<stop  offset="1" style="stop-color:#004A37"/>
		</linearGradient>
		<polygon class="st13" points="146.9,1135.7 134,1112.8 198.7,1076.5 211.6,1099.3 		"/>
	</g>
	<g>
		<g>
			<linearGradient id="SVGID_15_" gradientUnits="userSpaceOnUse" x1="230.0287" y1="839.7969" x2="379.9955" y2="1251.7057">
				<stop  offset="7.092821e-03" style="stop-color:#39C44A"/>
				<stop  offset="0.3723" style="stop-color:#39C94A"/>
				<stop  offset="1" style="stop-color:#004A37"/>
			</linearGradient>
			<path class="st14" d="M402.6,1182.2l-15.6,24.1c1,2.5,1.5,5.1,1.5,7.9c0,12.2-10,22.2-22.2,22.2c-2.7,0-5.2-0.5-7.6-1.3
				c-6.3-2.3-11.2-7.3-13.4-13.6c-0.8-2.3-1.2-4.7-1.2-7.3c0-3.3,0.7-6.4,2-9.3c2.7-5.9,7.9-10.4,14.3-12.2c1.5-0.4,3-0.7,4.5-0.7
				l15.6-24.1c-4.5-1.4-9.3-2.1-14.3-2.1c-6.8,0-13.3,1.4-19.1,3.9c-15,6.5-26.1,20.3-28.7,36.9c-0.4,2.5-0.6,5-0.6,7.6
				c0,7.3,1.6,14.2,4.5,20.4c2.7,5.7,6.4,10.8,10.9,15c8.7,8.1,20.3,13,33,13c26.7,0,48.4-21.7,48.4-48.5
				C414.8,1201.9,410.2,1190.7,402.6,1182.2z"/>
		</g>
	</g>
	<g>
		<g>
			<linearGradient id="SVGID_16_" gradientUnits="userSpaceOnUse" x1="302.4076" y1="813.4453" x2="452.3745" y2="1225.3541">
				<stop  offset="7.092821e-03" style="stop-color:#39C44A"/>
				<stop  offset="0.3723" style="stop-color:#39C94A"/>
				<stop  offset="1" style="stop-color:#004A37"/>
			</linearGradient>
			<path class="st15" d="M418.7,1084.3c-16.7,0-31.4,8.4-40.1,21.3c-5,7.3-8,16-8.3,25.4c0,0.6,0,1.2,0,1.7
				c0,12.4,4.7,23.7,12.3,32.2l15.5-24c-1-2.5-1.6-5.3-1.6-8.2c0-12.2,10-22.2,22.2-22.2c12.2,0,22.2,10,22.2,22.2
				c0,11.7-9.1,21.3-20.6,22.1h0l-15.6,24.2c4.5,1.3,9.2,2.1,14.1,2.1c26.7,0,48.4-21.7,48.4-48.5
				C467.1,1106,445.4,1084.3,418.7,1084.3z"/>
		</g>
	</g>
	<linearGradient id="SVGID_17_" gradientUnits="userSpaceOnUse" x1="89.0185" y1="891.1356" x2="238.9853" y2="1303.0444">
		<stop  offset="7.092821e-03" style="stop-color:#39C44A"/>
		<stop  offset="0.3723" style="stop-color:#39C94A"/>
		<stop  offset="1" style="stop-color:#004A37"/>
	</linearGradient>
	<path class="st16" d="M240,1225.6v30.3l-26.2-15.1l-10.7-6.1l-22.9-13.2c0.8-2.3,1.2-4.7,1.2-7.3c0-3.3-0.7-6.4-2-9.3l6.1-10.7
		l21.5,12.4l6.7,3.9L240,1225.6z"/>
	<linearGradient id="SVGID_18_" gradientUnits="userSpaceOnUse" x1="180.2336" y1="857.9261" x2="330.2004" y2="1269.835">
		<stop  offset="7.092821e-03" style="stop-color:#39C44A"/>
		<stop  offset="0.3723" style="stop-color:#39C94A"/>
		<stop  offset="1" style="stop-color:#004A37"/>
	</linearGradient>
	<path class="st17" d="M344.1,1214.2c0,2.5,0.4,5,1.2,7.3l-22.9,13.2l-10.7,6.1l-26.2,15.1v-30.3l26.2-15.1l6.7-3.9l21.5-12.4
		l6.1,10.7C344.9,1207.8,344.1,1210.9,344.1,1214.2z"/>
	<g>
		<linearGradient id="SVGID_19_" gradientUnits="userSpaceOnUse" x1="252.7086" y1="831.5396" x2="402.6754" y2="1243.4485">
			<stop  offset="7.092821e-03" style="stop-color:#39C44A"/>
			<stop  offset="0.3723" style="stop-color:#39C94A"/>
			<stop  offset="1" style="stop-color:#004A37"/>
		</linearGradient>
		<polygon class="st18" points="378.6,1135.7 313.9,1099.3 326.7,1076.5 391.4,1112.8 		"/>
	</g>
	<linearGradient id="SVGID_20_" gradientUnits="userSpaceOnUse" x1="27.753" y1="913.4409" x2="177.7198" y2="1325.3499">
		<stop  offset="7.092821e-03" style="stop-color:#39C44A"/>
		<stop  offset="0.3723" style="stop-color:#39C94A"/>
		<stop  offset="1" style="stop-color:#004A37"/>
	</linearGradient>
	<circle class="st19" cx="107.6" cy="1132.7" r="8.1"/>
	<linearGradient id="SVGID_21_" gradientUnits="userSpaceOnUse" x1="302.4054" y1="813.4461" x2="452.3722" y2="1225.355">
		<stop  offset="7.092821e-03" style="stop-color:#39C44A"/>
		<stop  offset="0.3723" style="stop-color:#39C94A"/>
		<stop  offset="1" style="stop-color:#004A37"/>
	</linearGradient>
	<circle class="st20" cx="418.7" cy="1132.7" r="8.1"/>
	<linearGradient id="SVGID_22_" gradientUnits="userSpaceOnUse" x1="61.8368" y1="901.0318" x2="211.8036" y2="1312.9407">
		<stop  offset="7.092821e-03" style="stop-color:#39C44A"/>
		<stop  offset="0.3723" style="stop-color:#39C94A"/>
		<stop  offset="1" style="stop-color:#004A37"/>
	</linearGradient>
	<circle class="st21" cx="107.1" cy="1025.3" r="8.1"/>
	<linearGradient id="SVGID_23_" gradientUnits="userSpaceOnUse" x1="336.9293" y1="800.8768" x2="486.8961" y2="1212.7856">
		<stop  offset="7.092821e-03" style="stop-color:#39C44A"/>
		<stop  offset="0.3723" style="stop-color:#39C94A"/>
		<stop  offset="1" style="stop-color:#004A37"/>
	</linearGradient>
	<circle class="st22" cx="418.7" cy="1025.3" r="8.1"/>
	<linearGradient id="SVGID_24_" gradientUnits="userSpaceOnUse" x1="134.0415" y1="874.7437" x2="284.0084" y2="1286.6525">
		<stop  offset="7.092821e-03" style="stop-color:#39C44A"/>
		<stop  offset="0.3723" style="stop-color:#39C94A"/>
		<stop  offset="1" style="stop-color:#004A37"/>
	</linearGradient>
	<circle class="st23" cx="159.1" cy="943.6" r="8.1"/>
	<linearGradient id="SVGID_25_" gradientUnits="userSpaceOnUse" x1="317.0065" y1="808.1302" x2="466.9733" y2="1220.0391">
		<stop  offset="7.092821e-03" style="stop-color:#39C44A"/>
		<stop  offset="0.3723" style="stop-color:#39C94A"/>
		<stop  offset="1" style="stop-color:#004A37"/>
	</linearGradient>
	<circle class="st24" cx="366.3" cy="943.6" r="8.1"/>
	<linearGradient id="SVGID_26_" gradientUnits="userSpaceOnUse" x1="47.063" y1="906.4106" x2="197.0298" y2="1318.3195">
		<stop  offset="7.092821e-03" style="stop-color:#39C44A"/>
		<stop  offset="0.3723" style="stop-color:#39C94A"/>
		<stop  offset="1" style="stop-color:#004A37"/>
	</linearGradient>
	<circle class="st25" cx="159.1" cy="1214.2" r="8.1"/>
	<linearGradient id="SVGID_27_" gradientUnits="userSpaceOnUse" x1="230.028" y1="839.7971" x2="379.9948" y2="1251.7059">
		<stop  offset="7.092821e-03" style="stop-color:#39C44A"/>
		<stop  offset="0.3723" style="stop-color:#39C94A"/>
		<stop  offset="1" style="stop-color:#004A37"/>
	</linearGradient>
	<circle class="st26" cx="366.3" cy="1214.2" r="8.1"/>
</g>
</svg>
