<?xml version="1.0" encoding="utf-8"?>
<!-- Generator: Adobe Illustrator 23.0.5, SVG Export Plug-In . SVG Version: 6.00 Build 0)  -->
<svg version="1.1" id="Layer_1" xmlns="http://www.w3.org/2000/svg" xmlns:xlink="http://www.w3.org/1999/xlink" x="0px" y="0px"
	 viewBox="0 0 2000 2000" style="enable-background:new 0 0 2000 2000;" xml:space="preserve">
<style type="text/css">
	.st0{fill:#FFFFFF;}
	.st1{fill:url(#SVGID_1_);}
	.st2{fill:url(#SVGID_2_);}
	.st3{fill:url(#SVGID_3_);}
	.st4{fill:url(#SVGID_4_);}
	.st5{fill:url(#SVGID_5_);}
	.st6{fill:url(#SVGID_6_);}
	.st7{fill:url(#SVGID_7_);}
	.st8{fill:url(#SVGID_8_);}
	.st9{fill:url(#SVGID_9_);}
	.st10{fill:url(#SVGID_10_);}
	.st11{fill:url(#SVGID_11_);}
	.st12{fill:url(#SVGID_12_);}
	.st13{fill:url(#SVGID_13_);}
	.st14{fill:url(#SVGID_14_);}
	.st15{fill:url(#SVGID_15_);}
	.st16{fill:url(#SVGID_16_);}
	.st17{fill:url(#SVGID_17_);}
	.st18{fill:url(#SVGID_18_);}
	.st19{fill:url(#SVGID_19_);}
	.st20{fill:url(#SVGID_20_);}
	.st21{fill:url(#SVGID_21_);}
	.st22{fill:url(#SVGID_22_);}
	.st23{fill:url(#SVGID_23_);}
	.st24{fill:url(#SVGID_24_);}
	.st25{fill:url(#SVGID_25_);}
	.st26{fill:url(#SVGID_26_);}
	.st27{fill:url(#SVGID_27_);}
</style>
<g>
	<path class="st0" d="M115.5,1635.9c12.9,0,24.7-3.1,35.5-9.2c10.8-6.1,19.6-14.4,26.5-24.6l26.3,19.7c-10.1,13.7-22.7,24.6-38,32.7
		c-15.2,8.1-32,12.1-50.4,12.1c-15.1,0-29.3-2.9-42.6-8.8c-13.3-5.8-24.9-13.8-34.8-23.7c-9.9-10-17.7-21.7-23.4-35.1
		c-5.7-13.4-8.6-27.8-8.6-43.1c0-15.3,2.9-29.7,8.6-43.1c5.7-13.4,13.6-25.1,23.4-35.1c9.9-10,21.5-17.9,34.8-23.7
		c13.3-5.8,27.5-8.8,42.6-8.8c18.3,0,35.1,4,50.4,12.1c15.2,8.1,27.9,19,38,32.7l-26.3,19.7c-6.9-10.3-15.7-18.5-26.5-24.6
		c-10.8-6.1-22.6-9.2-35.5-9.2c-10.5,0-20.3,2.1-29.5,6.4c-9.2,4.2-17.2,10-24,17.2c-6.9,7.3-12.3,15.7-16.3,25.4
		c-4,9.7-6,20.1-6,31.1c0,11.1,2,21.5,6,31.1c4,9.7,9.5,18.1,16.3,25.4c6.9,7.3,14.9,13,24,17.2
		C95.2,1633.8,105,1635.9,115.5,1635.9z"/>
	<path class="st0" d="M228.9,1666.2l90.4-221.7l90.4,221.7h-33l-6.7-17.5H268.8l-7,17.5H228.9z M279.7,1620.2h79.2l-39.6-101.6
		L279.7,1620.2z"/>
	<path class="st0" d="M465.4,1667.1h-30.5v-225.9l143.3,171.5v-167.5h30.5v222h-29.6l-113.7-140V1667.1z"/>
	<path class="st0" d="M711.2,1444.8c14.9,0,28.9,2.9,41.9,8.8c13,5.8,24.3,13.8,34,23.9c9.7,10.1,17.3,21.8,23,35.2
		c5.6,13.4,8.5,27.8,8.5,43.1c0,15.3-2.7,29.7-8.2,43.1c-5.4,13.4-13,25.1-22.5,35.1c-9.6,10-20.9,17.9-34,23.7
		c-13.1,5.9-27.3,8.8-42.6,8.8h-77.4v-221.7H711.2z M707.6,1638c11.3,0,21.7-2.2,31.1-6.5c9.5-4.3,17.6-10.2,24.5-17.7
		c6.8-7.5,12.2-16.2,16-26.2c3.8-10,5.7-20.7,5.7-32c0-11.3-1.9-22-5.7-32c-3.8-10-9.2-18.7-16.2-26.2s-15.2-13.4-24.6-17.7
		c-9.5-4.3-19.8-6.5-30.8-6.5h-41.4V1638H707.6z"/>
	<path class="st0" d="M876,1635h90.4v31.8H843.7v-222H876V1635z"/>
	<path class="st0" d="M1303.5,1549.7c0.1,2,0.2,4,0.2,6c0,2.8-0.1,5.5-0.3,8.2c-0.2,2.6-0.5,5.2-0.9,7.9
		c-1.8,13.3-5.9,25.8-12.2,37.3c-6.4,11.6-14.3,21.6-23.9,30.1c-9.6,8.5-20.5,15.1-32.8,20c-12.3,4.8-25.4,7.3-39.3,7.3
		c-15.1,0-29.4-2.9-42.8-8.8c-13.4-5.8-25.1-13.8-34.9-23.7c-9.9-10-17.7-21.7-23.4-35.1c-5.7-13.4-8.6-27.8-8.6-43.1
		c0-15.3,2.9-29.7,8.6-43.1c5.7-13.4,13.6-25.1,23.4-35.1c9.9-10,21.5-17.9,34.9-23.7c13.4-5.8,27.7-8.8,42.8-8.8
		c11.5,0,22.4,1.7,32.8,5c10.4,3.3,19.9,8,28.6,14.1c8.7,6,16.4,13.3,23.1,21.6c6.8,8.4,12.2,17.5,16.5,27.4H1258
		c-6.7-11.3-15.6-20.4-26.8-27.2c-11.2-6.9-23.5-10.3-37-10.3c-10.5,0-20.4,2.1-29.6,6.4c-9.3,4.2-17.3,10-24.2,17.2
		c-6.9,7.3-12.3,15.7-16.3,25.4c-4,9.7-6.1,20.1-6.1,31.1c0,11.1,2,21.5,6.1,31.1c4,9.7,9.5,18.1,16.3,25.4
		c6.9,7.3,14.9,13,24.2,17.2c9.3,4.2,19.1,6.4,29.6,6.4c9.1,0,17.7-1.6,26-4.8c8.3-3.2,15.7-7.7,22.2-13.5
		c6.6-5.7,12.1-12.6,16.6-20.4c4.5-7.9,7.7-16.3,9.5-25.4h-77.4v-28.4h78h33.9C1303.2,1545.6,1303.4,1547.7,1303.5,1549.7z"/>
	<path class="st0" d="M1481.2,1545.2c-2.8,9.1-7,17.2-12.6,24.5s-12.4,13.4-20.4,18.4c-0.4,0.4-0.9,0.7-1.5,0.9
		c-0.6,0.2-1.1,0.5-1.5,0.9l39,76.8H1450l-34.2-66.8c-2.4,0.4-4.8,0.7-7.3,0.9c-2.4,0.2-5,0.3-7.9,0.3h-39.6v65.6h-32.4v-222.3h72
		c9.1,0,17.6,1.2,25.6,3.5c8,2.3,15.3,5.5,21.9,9.5c16.3,10.3,27.3,24.7,33,43.2c0.2,1,0.4,1.9,0.6,2.7c0.2,0.8,0.5,1.7,0.9,2.7v1.5
		c0.4,1,0.7,2.1,0.8,3.3c0.1,1.2,0.3,2.4,0.5,3.6v0.3c0.2,1.2,0.3,2.4,0.3,3.6c0,1.2,0,2.5,0,3.9v0.3v0.6c0,1.2,0,2.4,0,3.6
		c0,1.2-0.1,2.4-0.3,3.6v0.6c-0.2,1.2-0.4,2.4-0.5,3.5c-0.1,1.1-0.4,2.3-0.8,3.5v1.2C1481.9,1541.7,1481.4,1543.6,1481.2,1545.2z
		 M1404.6,1572.7c6.7,0,12.7-1.4,18.3-4.2c5.5-2.8,10.3-6.6,14.4-11.2c4-4.7,7.3-10,9.7-15.9c2.4-6,3.6-12.2,3.6-18.7
		c0-6.3-1.2-12.4-3.6-18.5c-2.4-6.1-5.6-11.4-9.7-15.9c-4-4.6-8.8-8.2-14.4-11.1c-5.5-2.8-11.6-4.2-18.3-4.2h-43.2v99.8H1404.6z"/>
	<path class="st0" d="M1541.3,1634.1h98.6v31.8h-130.6v-220.8h128.5v31.1h-96.5v34.9v18.1v22h86.8v30.2h-86.8V1634.1z"/>
	<path class="st0" d="M1697.1,1634.1h98.6v31.8H1665v-220.8h128.5v31.1h-96.5v34.9v18.1v22h86.8v30.2h-86.8V1634.1z"/>
	<path class="st0" d="M1851.3,1667.1h-30.5v-225.9l143.3,171.5v-167.5h30.5v222H1965l-113.7-140V1667.1z"/>
</g>
<g>
	<g>
		<linearGradient id="SVGID_1_" gradientUnits="userSpaceOnUse" x1="820.1288" y1="346.081" x2="1154.9691" y2="1265.7756">
			<stop  offset="7.092821e-03" style="stop-color:#39C44A"/>
			<stop  offset="0.3723" style="stop-color:#39C94A"/>
			<stop  offset="1" style="stop-color:#004A37"/>
		</linearGradient>
		<path class="st1" d="M1058.9,692.6l-58.6-33.8l-58.6,33.8l-99.2,57.3v182.3l99.2,57.3l58.6,33.8l0.1,0l0.1,0l58.6-33.8l99.2-57.3
			V749.9L1058.9,692.6z M1099.6,898.3l-99.2,57.3l-0.1,0l-0.1,0l-99.2-57.3V783.7l99.2-57.3l99.2,57.3V898.3z"/>
	</g>
	<g>
		<linearGradient id="SVGID_2_" gradientUnits="userSpaceOnUse" x1="919.9544" y1="309.7367" x2="1254.7947" y2="1229.4314">
			<stop  offset="7.092821e-03" style="stop-color:#39C44A"/>
			<stop  offset="0.3723" style="stop-color:#39C94A"/>
			<stop  offset="1" style="stop-color:#004A37"/>
		</linearGradient>
		<path class="st2" d="M1000.3,334.6l-109.4,63.2v149.4l58.6-33.6v-81.9l50.8-29.4l50.8,29.4v81.9l58.6,33.6V397.7L1000.3,334.6z
			 M1051.2,561.1v68.3l-50.8,29.4l-50.8-29.4v-68.3l-58.6,33.6v68.5l50.8,29.4l58.6,33.8l58.6-33.8l50.8-29.4v-68.5L1051.2,561.1z"
			/>
	</g>
	<g>
		<g>
			<linearGradient id="SVGID_3_" gradientUnits="userSpaceOnUse" x1="712.9786" y1="385.0919" x2="1047.819" y2="1304.7867">
				<stop  offset="7.092821e-03" style="stop-color:#39C44A"/>
				<stop  offset="0.3723" style="stop-color:#39C94A"/>
				<stop  offset="1" style="stop-color:#004A37"/>
			</linearGradient>
			<path class="st3" d="M867,493.3c-17.2-36.9-54.7-62.5-98.1-62.5c-59.7,0-108.2,48.5-108.2,108.2c0,27.4,10.3,52.5,27.1,71.6
				l34.7-53.9c-2.1-5.5-3.3-11.5-3.3-17.7c0-27.3,22.2-49.6,49.6-49.6c21.7,0,40.1,14,46.8,33.4c1.8,5.1,2.7,10.5,2.7,16.2
				c0,7.4-1.6,14.4-4.5,20.7c-7.4,16.2-23.4,27.7-42.1,28.8l-34.8,53.9c10.1,3.1,20.8,4.8,31.9,4.8c53.9,0,98.7-39.6,106.8-91.3
				c0.9-5.5,1.3-11.1,1.3-16.9C877.2,522.6,873.5,507.2,867,493.3z"/>
		</g>
	</g>
	<g>
		<g>
			<linearGradient id="SVGID_4_" gradientUnits="userSpaceOnUse" x1="551.3755" y1="443.928" x2="886.2158" y2="1363.6228">
				<stop  offset="7.092821e-03" style="stop-color:#39C44A"/>
				<stop  offset="0.3723" style="stop-color:#39C94A"/>
				<stop  offset="1" style="stop-color:#004A37"/>
			</linearGradient>
			<path class="st4" d="M732.9,648.9l-34.6,53.7c2.3,5.6,3.5,11.8,3.5,18.2c0,27.3-22.2,49.6-49.6,49.6c-27.3,0-49.6-22.2-49.6-49.6
				c0-26.1,20.3-47.6,46-49.4l34.9-54.1c-9.9-3-20.5-4.6-31.4-4.6c-59.6,0-108.2,48.5-108.2,108.2c0,59.7,48.5,108.2,108.2,108.2
				c37.2,0,70-18.8,89.5-47.5c11.1-16.3,17.8-35.8,18.6-56.8c0.1-1.3,0.1-2.6,0.1-3.9C760.4,693.2,750,668,732.9,648.9z"/>
		</g>
	</g>
	<g>
		<linearGradient id="SVGID_5_" gradientUnits="userSpaceOnUse" x1="662.3487" y1="403.5252" x2="997.189" y2="1323.22">
			<stop  offset="7.092821e-03" style="stop-color:#39C44A"/>
			<stop  offset="0.3723" style="stop-color:#39C94A"/>
			<stop  offset="1" style="stop-color:#004A37"/>
		</linearGradient>
		<polygon class="st5" points="886.1,795.4 860.5,841 857.4,846.5 847.6,841 842.5,838.1 741.7,781.5 713,765.4 741.7,714.3 
			760.3,724.7 842.5,770.9 		"/>
	</g>
	<g>
		<g>
			<linearGradient id="SVGID_6_" gradientUnits="userSpaceOnUse" x1="1121.4978" y1="236.3592" x2="1456.3381" y2="1156.054">
				<stop  offset="7.092821e-03" style="stop-color:#39C44A"/>
				<stop  offset="0.3723" style="stop-color:#39C94A"/>
				<stop  offset="1" style="stop-color:#004A37"/>
			</linearGradient>
			<path class="st6" d="M1231.6,430.7c-43.3,0-80.8,25.6-98.1,62.5c-6.5,13.9-10.1,29.3-10.1,45.6c0,5.8,0.5,11.4,1.3,16.9
				c8.1,51.7,53,91.3,106.8,91.3c11.1,0,21.8-1.7,31.8-4.8l-34.8-53.9c-18.7-1.1-34.7-12.6-42.1-28.8c-2.9-6.3-4.5-13.3-4.5-20.7
				c0-5.7,1-11.1,2.7-16.2c6.7-19.4,25.2-33.4,46.8-33.4c27.3,0,49.6,22.2,49.6,49.6c0,6.2-1.2,12.2-3.3,17.7l34.7,53.9
				c16.9-19.1,27.1-44.1,27.1-71.6C1339.8,479.3,1291.3,430.7,1231.6,430.7z"/>
		</g>
	</g>
	<g>
		<g>
			<linearGradient id="SVGID_7_" gradientUnits="userSpaceOnUse" x1="1166.145" y1="220.1042" x2="1500.9854" y2="1139.799">
				<stop  offset="7.092821e-03" style="stop-color:#39C44A"/>
				<stop  offset="0.3723" style="stop-color:#39C94A"/>
				<stop  offset="1" style="stop-color:#004A37"/>
			</linearGradient>
			<path class="st7" d="M1348.5,612.7c-10.9,0-21.4,1.6-31.4,4.6l34.9,54.1c25.7,1.8,46,23.3,46,49.4c0,27.3-22.2,49.6-49.6,49.6
				c-27.3,0-49.6-22.2-49.6-49.6c0-6.4,1.2-12.6,3.5-18.3l-34.6-53.7c-17.1,19.1-27.5,44.3-27.5,71.9c0,1.3,0,2.6,0.1,3.9
				c0.7,21,7.5,40.5,18.6,56.8c19.5,28.6,52.3,47.5,89.5,47.5c59.6,0,108.2-48.5,108.2-108.2
				C1456.6,661.2,1408.1,612.7,1348.5,612.7z"/>
		</g>
	</g>
	<linearGradient id="SVGID_8_" gradientUnits="userSpaceOnUse" x1="824.1689" y1="344.61" x2="1159.0093" y2="1264.3048">
		<stop  offset="7.092821e-03" style="stop-color:#39C44A"/>
		<stop  offset="0.3723" style="stop-color:#39C94A"/>
		<stop  offset="1" style="stop-color:#004A37"/>
	</linearGradient>
	<path class="st8" d="M949.5,446v67.6l-58.6,33.6l-15,8.6l-48.1,27.6L814,559.6c2.9-6.3,4.5-13.3,4.5-20.7c0-5.7-1-11.1-2.7-16.2
		l51.2-29.4l23.8-13.7L949.5,446z"/>
	<linearGradient id="SVGID_9_" gradientUnits="userSpaceOnUse" x1="1027.8304" y1="270.4614" x2="1362.6708" y2="1190.1561">
		<stop  offset="7.092821e-03" style="stop-color:#39C44A"/>
		<stop  offset="0.3723" style="stop-color:#39C94A"/>
		<stop  offset="1" style="stop-color:#004A37"/>
	</linearGradient>
	<path class="st9" d="M1186.6,559.6l-13.7,23.9l-48.1-27.6l-15-8.6l-58.6-33.6V446l58.6,33.7l23.8,13.7l51.2,29.4
		c-1.8,5.1-2.7,10.5-2.7,16.2C1182.1,546.3,1183.7,553.3,1186.6,559.6z"/>
	<g>
		<linearGradient id="SVGID_10_" gradientUnits="userSpaceOnUse" x1="1016.8945" y1="274.443" x2="1351.7349" y2="1194.1377">
			<stop  offset="7.092821e-03" style="stop-color:#39C44A"/>
			<stop  offset="0.3723" style="stop-color:#39C94A"/>
			<stop  offset="1" style="stop-color:#004A37"/>
		</linearGradient>
		<polygon class="st10" points="1287.7,765.4 1259,781.5 1158.2,838.1 1153,841 1143.2,846.5 1140.1,841 1114.5,795.4 1158.2,770.9 
			1240.4,724.7 1259,714.3 		"/>
	</g>
	<g>
		<linearGradient id="SVGID_11_" gradientUnits="userSpaceOnUse" x1="720.3312" y1="382.415" x2="1055.1715" y2="1302.1097">
			<stop  offset="7.092821e-03" style="stop-color:#39C44A"/>
			<stop  offset="0.3723" style="stop-color:#39C94A"/>
			<stop  offset="1" style="stop-color:#004A37"/>
		</linearGradient>
		<path class="st11" d="M1059,989.4l-58.6-33.8l-0.1,0l-0.1,0l-58.6,33.8l-50.8,29.3v68.5l58.6,33.6v-68.3l50.8-29.3l0.1,0l0.1,0
			l50.8,29.3v68.3l58.6-33.6v-68.5L1059,989.4z M1051.2,1168.4v82l-50.8,29.3l-50.8-29.3v-82l-58.6-33.6v149.4l109.4,63.2
			l109.4-63.2v-149.4L1051.2,1168.4z"/>
	</g>
	<g>
		<g>
			<linearGradient id="SVGID_12_" gradientUnits="userSpaceOnUse" x1="518.7748" y1="455.7972" x2="853.6151" y2="1375.4919">
				<stop  offset="7.092821e-03" style="stop-color:#39C44A"/>
				<stop  offset="0.3723" style="stop-color:#39C94A"/>
				<stop  offset="1" style="stop-color:#004A37"/>
			</linearGradient>
			<path class="st12" d="M875.8,1126.1c-5.8-37.1-30.6-68-64.2-82.5c-13.1-5.7-27.5-8.8-42.7-8.8c-11.1,0-21.8,1.7-31.9,4.8
				l34.8,53.9c3.5,0.2,6.9,0.8,10.2,1.7c14.2,3.9,25.9,14,31.9,27.2c2.9,6.3,4.5,13.3,4.5,20.7c0,5.7-1,11.2-2.7,16.2
				c-4.9,14.1-16,25.3-29.9,30.4c-5.3,1.9-11,3-16.9,3c-27.3,0-49.6-22.2-49.6-49.6c0-6.3,1.2-12.2,3.3-17.7v0l-34.7-53.8
				c-16.9,19.1-27.1,44.1-27.1,71.6c0,59.7,48.5,108.2,108.2,108.2c28.4,0,54.3-11,73.6-29c10.2-9.4,18.5-20.8,24.4-33.5
				c6.5-13.9,10.1-29.3,10.1-45.6C877.2,1137.3,876.7,1131.7,875.8,1126.1z"/>
		</g>
	</g>
	<g>
		<g>
			<linearGradient id="SVGID_13_" gradientUnits="userSpaceOnUse" x1="474.1275" y1="472.0523" x2="808.9678" y2="1391.7471">
				<stop  offset="7.092821e-03" style="stop-color:#39C44A"/>
				<stop  offset="0.3723" style="stop-color:#39C94A"/>
				<stop  offset="1" style="stop-color:#004A37"/>
			</linearGradient>
			<path class="st13" d="M760.3,957.2c-0.7-21-7.5-40.5-18.6-56.8c-19.5-28.6-52.3-47.5-89.5-47.5c-59.6,0-108.2,48.5-108.2,108.2
				c0,59.7,48.5,108.2,108.2,108.2c10.9,0,21.4-1.6,31.4-4.6l-34.9-54.1h0c-25.7-1.8-46-23.3-46-49.4c0-27.3,22.2-49.6,49.6-49.6
				c27.3,0,49.6,22.2,49.6,49.6c0,6.4-1.2,12.6-3.5,18.3l34.6,53.7c17.1-19.1,27.5-44.4,27.5-71.9
				C760.4,959.8,760.3,958.5,760.3,957.2z"/>
		</g>
	</g>
	<g>
		<linearGradient id="SVGID_14_" gradientUnits="userSpaceOnUse" x1="623.382" y1="417.7121" x2="958.2223" y2="1337.4069">
			<stop  offset="7.092821e-03" style="stop-color:#39C44A"/>
			<stop  offset="0.3723" style="stop-color:#39C94A"/>
			<stop  offset="1" style="stop-color:#004A37"/>
		</linearGradient>
		<polygon class="st14" points="741.7,967.7 713,916.6 857.4,835.5 886.1,886.6 		"/>
	</g>
	<g>
		<g>
			<linearGradient id="SVGID_15_" gradientUnits="userSpaceOnUse" x1="927.2937" y1="307.0646" x2="1262.134" y2="1226.7594">
				<stop  offset="7.092821e-03" style="stop-color:#39C44A"/>
				<stop  offset="0.3723" style="stop-color:#39C94A"/>
				<stop  offset="1" style="stop-color:#004A37"/>
			</linearGradient>
			<path class="st15" d="M1312.7,1071.5l-34.7,53.9c2.1,5.5,3.3,11.5,3.3,17.7c0,27.3-22.2,49.6-49.6,49.6c-5.9,0-11.6-1-16.9-3
				c-14-5.1-25-16.3-29.9-30.4c-1.8-5.1-2.7-10.5-2.7-16.2c0-7.4,1.6-14.4,4.5-20.7c6.1-13.2,17.7-23.3,31.9-27.2
				c3.3-0.9,6.7-1.5,10.2-1.7l34.8-53.9c-10.1-3.1-20.8-4.8-31.8-4.8c-15.2,0-29.6,3.1-42.7,8.8c-33.5,14.5-58.3,45.4-64.1,82.5
				c-0.9,5.5-1.3,11.1-1.3,16.9c0,16.3,3.6,31.8,10.1,45.6c5.9,12.7,14.3,24.1,24.4,33.5c19.3,18,45.2,29,73.6,29
				c59.6,0,108.2-48.5,108.2-108.2C1339.8,1115.6,1329.5,1090.5,1312.7,1071.5z"/>
		</g>
	</g>
	<g>
		<g>
			<linearGradient id="SVGID_16_" gradientUnits="userSpaceOnUse" x1="1088.8987" y1="248.2278" x2="1423.739" y2="1167.9226">
				<stop  offset="7.092821e-03" style="stop-color:#39C44A"/>
				<stop  offset="0.3723" style="stop-color:#39C94A"/>
				<stop  offset="1" style="stop-color:#004A37"/>
			</linearGradient>
			<path class="st16" d="M1348.5,852.9c-37.2,0-70,18.9-89.5,47.5c-11.1,16.3-17.9,35.8-18.6,56.8c-0.1,1.3-0.1,2.6-0.1,3.9
				c0,27.6,10.4,52.8,27.5,71.9l34.6-53.7c-2.3-5.6-3.5-11.8-3.5-18.3c0-27.3,22.2-49.6,49.6-49.6c27.3,0,49.6,22.2,49.6,49.6
				c0,26.2-20.3,47.6-46,49.4h0l-34.9,54.1c9.9,3,20.5,4.6,31.4,4.6c59.6,0,108.2-48.5,108.2-108.2
				C1456.6,901.5,1408.1,852.9,1348.5,852.9z"/>
		</g>
	</g>
	<linearGradient id="SVGID_17_" gradientUnits="userSpaceOnUse" x1="612.4514" y1="421.6917" x2="947.2917" y2="1341.3865">
		<stop  offset="7.092821e-03" style="stop-color:#39C44A"/>
		<stop  offset="0.3723" style="stop-color:#39C94A"/>
		<stop  offset="1" style="stop-color:#004A37"/>
	</linearGradient>
	<path class="st17" d="M949.5,1168.4v67.6l-58.6-33.7l-23.8-13.7l-51.2-29.4c1.8-5.1,2.7-10.5,2.7-16.2c0-7.4-1.6-14.4-4.5-20.7
		l13.7-23.9l48.1,27.6l15,8.6L949.5,1168.4z"/>
	<linearGradient id="SVGID_18_" gradientUnits="userSpaceOnUse" x1="816.1132" y1="347.543" x2="1150.9535" y2="1267.2377">
		<stop  offset="7.092821e-03" style="stop-color:#39C44A"/>
		<stop  offset="0.3723" style="stop-color:#39C94A"/>
		<stop  offset="1" style="stop-color:#004A37"/>
	</linearGradient>
	<path class="st18" d="M1182.1,1143c0,5.7,1,11.2,2.7,16.2l-51.2,29.4l-23.8,13.7l-58.6,33.7v-67.6l58.6-33.6l15-8.6l48.1-27.6
		l13.7,23.9C1183.7,1128.7,1182.1,1135.6,1182.1,1143z"/>
	<g>
		<linearGradient id="SVGID_19_" gradientUnits="userSpaceOnUse" x1="977.9325" y1="288.6281" x2="1312.7728" y2="1208.3229">
			<stop  offset="7.092821e-03" style="stop-color:#39C44A"/>
			<stop  offset="0.3723" style="stop-color:#39C94A"/>
			<stop  offset="1" style="stop-color:#004A37"/>
		</linearGradient>
		<polygon class="st19" points="1259,967.7 1114.5,886.6 1143.2,835.5 1287.7,916.6 		"/>
	</g>
	<linearGradient id="SVGID_20_" gradientUnits="userSpaceOnUse" x1="475.66" y1="471.4944" x2="810.5004" y2="1391.1891">
		<stop  offset="7.092821e-03" style="stop-color:#39C44A"/>
		<stop  offset="0.3723" style="stop-color:#39C94A"/>
		<stop  offset="1" style="stop-color:#004A37"/>
	</linearGradient>
	<circle class="st20" cx="653.9" cy="961.1" r="18.1"/>
	<linearGradient id="SVGID_21_" gradientUnits="userSpaceOnUse" x1="1088.8937" y1="248.2297" x2="1423.734" y2="1167.9244">
		<stop  offset="7.092821e-03" style="stop-color:#39C44A"/>
		<stop  offset="0.3723" style="stop-color:#39C94A"/>
		<stop  offset="1" style="stop-color:#004A37"/>
	</linearGradient>
	<circle class="st21" cx="1348.4" cy="961.1" r="18.1"/>
	<linearGradient id="SVGID_22_" gradientUnits="userSpaceOnUse" x1="551.7611" y1="443.7877" x2="886.6014" y2="1363.4824">
		<stop  offset="7.092821e-03" style="stop-color:#39C44A"/>
		<stop  offset="0.3723" style="stop-color:#39C94A"/>
		<stop  offset="1" style="stop-color:#004A37"/>
	</linearGradient>
	<circle class="st22" cx="652.8" cy="721.3" r="18.1"/>
	<linearGradient id="SVGID_23_" gradientUnits="userSpaceOnUse" x1="1165.9774" y1="220.1652" x2="1500.8176" y2="1139.86">
		<stop  offset="7.092821e-03" style="stop-color:#39C44A"/>
		<stop  offset="0.3723" style="stop-color:#39C94A"/>
		<stop  offset="1" style="stop-color:#004A37"/>
	</linearGradient>
	<circle class="st23" cx="1348.4" cy="721.3" r="18.1"/>
	<linearGradient id="SVGID_24_" gradientUnits="userSpaceOnUse" x1="712.9772" y1="385.0925" x2="1047.8175" y2="1304.7872">
		<stop  offset="7.092821e-03" style="stop-color:#39C44A"/>
		<stop  offset="0.3723" style="stop-color:#39C94A"/>
		<stop  offset="1" style="stop-color:#004A37"/>
	</linearGradient>
	<circle class="st24" cx="769" cy="538.9" r="18.1"/>
	<linearGradient id="SVGID_25_" gradientUnits="userSpaceOnUse" x1="1121.4945" y1="236.3605" x2="1456.3348" y2="1156.0552">
		<stop  offset="7.092821e-03" style="stop-color:#39C44A"/>
		<stop  offset="0.3723" style="stop-color:#39C94A"/>
		<stop  offset="1" style="stop-color:#004A37"/>
	</linearGradient>
	<circle class="st25" cx="1231.6" cy="538.9" r="18.1"/>
	<linearGradient id="SVGID_26_" gradientUnits="userSpaceOnUse" x1="518.7748" y1="455.7972" x2="853.6151" y2="1375.4919">
		<stop  offset="7.092821e-03" style="stop-color:#39C44A"/>
		<stop  offset="0.3723" style="stop-color:#39C94A"/>
		<stop  offset="1" style="stop-color:#004A37"/>
	</linearGradient>
	<circle class="st26" cx="769" cy="1143" r="18.1"/>
	<linearGradient id="SVGID_27_" gradientUnits="userSpaceOnUse" x1="927.2921" y1="307.0652" x2="1262.1324" y2="1226.7599">
		<stop  offset="7.092821e-03" style="stop-color:#39C44A"/>
		<stop  offset="0.3723" style="stop-color:#39C94A"/>
		<stop  offset="1" style="stop-color:#004A37"/>
	</linearGradient>
	<circle class="st27" cx="1231.6" cy="1143" r="18.1"/>
</g>
</svg>
