<?xml version="1.0" encoding="utf-8"?>
<!-- Generator: Adobe Illustrator 23.0.5, SVG Export Plug-In . SVG Version: 6.00 Build 0)  -->
<svg version="1.1" id="Layer_1" xmlns="http://www.w3.org/2000/svg" xmlns:xlink="http://www.w3.org/1999/xlink" x="0px" y="0px"
	 viewBox="0 0 2000 2000" style="enable-background:new 0 0 2000 2000;" xml:space="preserve">
<style type="text/css">
	.st0{fill:url(#SVGID_1_);}
	.st1{fill:url(#SVGID_2_);}
	.st2{fill:url(#SVGID_3_);}
	.st3{fill:url(#SVGID_4_);}
	.st4{fill:url(#SVGID_5_);}
	.st5{fill:url(#SVGID_6_);}
	.st6{fill:url(#SVGID_7_);}
	.st7{fill:url(#SVGID_8_);}
	.st8{fill:url(#SVGID_9_);}
	.st9{fill:url(#SVGID_10_);}
	.st10{fill:url(#SVGID_11_);}
	.st11{fill:url(#SVGID_12_);}
	.st12{fill:url(#SVGID_13_);}
	.st13{fill:url(#SVGID_14_);}
	.st14{fill:url(#SVGID_15_);}
	.st15{fill:url(#SVGID_16_);}
	.st16{fill:url(#SVGID_17_);}
	.st17{fill:url(#SVGID_18_);}
	.st18{fill:url(#SVGID_19_);}
	.st19{fill:url(#SVGID_20_);}
	.st20{fill:url(#SVGID_21_);}
	.st21{fill:url(#SVGID_22_);}
	.st22{fill:url(#SVGID_23_);}
	.st23{fill:url(#SVGID_24_);}
	.st24{fill:url(#SVGID_25_);}
	.st25{fill:url(#SVGID_26_);}
	.st26{fill:url(#SVGID_27_);}
</style>
<g>
	<g>
		<linearGradient id="SVGID_1_" gradientUnits="userSpaceOnUse" x1="770.7916" y1="361.4145" x2="1196.7153" y2="1531.2853">
			<stop  offset="7.092821e-03" style="stop-color:#39C44A"/>
			<stop  offset="0.3723" style="stop-color:#39C94A"/>
			<stop  offset="1" style="stop-color:#004A37"/>
		</linearGradient>
		<path class="st0" d="M1074.5,802.2l-74.5-43l-74.5,43l-126.2,72.9v231.8l126.2,72.8l74.5,43l0.1,0.1l0.1-0.1l74.5-43l126.2-72.8
			V875.1L1074.5,802.2z M1126.2,1063.9l-126.2,72.9l-0.1,0.1l-0.1-0.1l-126.2-72.9V918.1l126.2-72.9l126.2,72.9V1063.9z"/>
	</g>
	<g>
		<linearGradient id="SVGID_2_" gradientUnits="userSpaceOnUse" x1="897.7717" y1="315.1839" x2="1323.6956" y2="1485.0546">
			<stop  offset="7.092821e-03" style="stop-color:#39C44A"/>
			<stop  offset="0.3723" style="stop-color:#39C94A"/>
			<stop  offset="1" style="stop-color:#004A37"/>
		</linearGradient>
		<path class="st1" d="M1000,346.8l-139.2,80.4v190.1l74.5-42.8V470.2l64.7-37.4l64.7,37.4v104.2l74.5,42.8V427.1L1000,346.8z
			 M1064.7,634.9v86.9l-64.7,37.4l-64.7-37.4v-86.9l-74.5,42.8v87.2l64.7,37.4l74.5,43l74.5-43l64.7-37.4v-87.1L1064.7,634.9z"/>
	</g>
	<g>
		<g>
			<linearGradient id="SVGID_3_" gradientUnits="userSpaceOnUse" x1="634.4943" y1="411.0373" x2="1060.4181" y2="1580.9081">
				<stop  offset="7.092821e-03" style="stop-color:#39C44A"/>
				<stop  offset="0.3723" style="stop-color:#39C94A"/>
				<stop  offset="1" style="stop-color:#004A37"/>
			</linearGradient>
			<path class="st2" d="M830.5,548.7c-21.9-47-69.6-79.6-124.7-79.6c-75.9,0-137.6,61.7-137.6,137.6c0,34.9,13.1,66.8,34.5,91
				l44.2-68.5c-2.7-7-4.2-14.6-4.2-22.5c0-34.8,28.3-63.1,63.1-63.1c27.6,0,51,17.8,59.6,42.4c2.3,6.5,3.5,13.4,3.5,20.6
				c0,9.4-2,18.3-5.8,26.3c-9.5,20.6-29.8,35.3-53.6,36.7l-44.3,68.6c12.8,3.9,26.4,6.1,40.5,6.1c68.5,0,125.6-50.4,135.9-116.1
				c1.1-7,1.7-14.2,1.7-21.5C843.3,586,838.7,566.3,830.5,548.7z"/>
		</g>
	</g>
	<g>
		<g>
			<linearGradient id="SVGID_4_" gradientUnits="userSpaceOnUse" x1="428.9317" y1="485.8781" x2="854.8555" y2="1655.7488">
				<stop  offset="7.092821e-03" style="stop-color:#39C44A"/>
				<stop  offset="0.3723" style="stop-color:#39C94A"/>
				<stop  offset="1" style="stop-color:#004A37"/>
			</linearGradient>
			<path class="st3" d="M659.8,746.6l-44.1,68.3c2.9,7.2,4.4,15,4.4,23.2c0,34.8-28.3,63.1-63.1,63.1c-34.8,0-63.1-28.3-63.1-63.1
				c0-33.2,25.9-60.6,58.6-62.9l44.4-68.8c-12.6-3.8-26-5.9-39.9-5.9c-75.9,0-137.6,61.7-137.6,137.6c0,75.9,61.7,137.6,137.6,137.6
				c47.3,0,89.1-24,113.8-60.4c14.1-20.8,22.7-45.6,23.6-72.2c0.1-1.6,0.1-3.3,0.1-4.9C694.8,803,681.5,770.9,659.8,746.6z"/>
		</g>
	</g>
	<g>
		<linearGradient id="SVGID_5_" gradientUnits="userSpaceOnUse" x1="570.092" y1="434.4848" x2="996.0158" y2="1604.3555">
			<stop  offset="7.092821e-03" style="stop-color:#39C44A"/>
			<stop  offset="0.3723" style="stop-color:#39C94A"/>
			<stop  offset="1" style="stop-color:#004A37"/>
		</linearGradient>
		<polygon class="st4" points="854.7,932.9 822.2,990.9 818.2,997.9 805.8,990.9 799.2,987.2 671,915.3 634.5,894.8 671,829.8 
			694.6,843 799.2,901.7 		"/>
	</g>
	<g>
		<g>
			<linearGradient id="SVGID_6_" gradientUnits="userSpaceOnUse" x1="1154.1392" y1="221.8463" x2="1580.0629" y2="1391.7169">
				<stop  offset="7.092821e-03" style="stop-color:#39C44A"/>
				<stop  offset="0.3723" style="stop-color:#39C94A"/>
				<stop  offset="1" style="stop-color:#004A37"/>
			</linearGradient>
			<path class="st5" d="M1294.3,469.1c-55.1,0-102.8,32.6-124.7,79.6c-8.3,17.6-12.9,37.3-12.9,58c0,7.3,0.6,14.5,1.7,21.5
				c10.3,65.7,67.4,116.1,135.9,116.1c14.1,0,27.7-2.1,40.5-6.1l-44.2-68.6c-23.8-1.4-44.1-16.1-53.6-36.7c-3.7-8-5.8-16.9-5.8-26.3
				c0-7.2,1.2-14.2,3.5-20.6c8.6-24.7,32-42.4,59.6-42.4c34.8,0,63.1,28.3,63.1,63.1c0,7.9-1.5,15.5-4.2,22.5l44.2,68.5
				c21.5-24.3,34.5-56.2,34.5-91C1431.8,530.8,1370.1,469.1,1294.3,469.1z"/>
		</g>
	</g>
	<g>
		<g>
			<linearGradient id="SVGID_7_" gradientUnits="userSpaceOnUse" x1="1210.9313" y1="201.1695" x2="1636.8551" y2="1371.0402">
				<stop  offset="7.092821e-03" style="stop-color:#39C44A"/>
				<stop  offset="0.3723" style="stop-color:#39C94A"/>
				<stop  offset="1" style="stop-color:#004A37"/>
			</linearGradient>
			<path class="st6" d="M1442.8,700.5c-13.9,0-27.3,2.1-39.9,5.9l44.4,68.8c32.7,2.3,58.6,29.6,58.6,62.9
				c0,34.8-28.3,63.1-63.1,63.1c-34.8,0-63.1-28.3-63.1-63.1c0-8.2,1.6-16,4.4-23.2l-44-68.3c-21.7,24.3-34.9,56.4-34.9,91.5
				c0,1.7,0,3.3,0.1,5c0.9,26.7,9.5,51.5,23.7,72.2c24.8,36.4,66.6,60.4,113.8,60.4c75.9,0,137.6-61.7,137.6-137.6
				C1580.4,762.2,1518.7,700.5,1442.8,700.5z"/>
		</g>
	</g>
	<linearGradient id="SVGID_8_" gradientUnits="userSpaceOnUse" x1="775.9306" y1="359.5435" x2="1201.8544" y2="1529.4142">
		<stop  offset="7.092821e-03" style="stop-color:#39C44A"/>
		<stop  offset="0.3723" style="stop-color:#39C94A"/>
		<stop  offset="1" style="stop-color:#004A37"/>
	</linearGradient>
	<path class="st7" d="M935.3,488.5v85.9l-74.5,42.8l-19.1,11l-61.2,35.1L763,633c3.7-8,5.8-16.9,5.8-26.3c0-7.2-1.2-14.2-3.5-20.6
		l65.2-37.4l30.3-17.4L935.3,488.5z"/>
	<linearGradient id="SVGID_9_" gradientUnits="userSpaceOnUse" x1="1034.9923" y1="265.2249" x2="1460.9161" y2="1435.0956">
		<stop  offset="7.092821e-03" style="stop-color:#39C44A"/>
		<stop  offset="0.3723" style="stop-color:#39C94A"/>
		<stop  offset="1" style="stop-color:#004A37"/>
	</linearGradient>
	<path class="st8" d="M1237,633l-17.4,30.3l-61.2-35.1l-19.1-11l-74.5-42.8v-85.9l74.5,42.8l30.3,17.4l65.2,37.4
		c-2.3,6.5-3.5,13.4-3.5,20.6C1231.2,616.1,1233.2,625,1237,633z"/>
	<g>
		<linearGradient id="SVGID_10_" gradientUnits="userSpaceOnUse" x1="1021.0816" y1="270.2895" x2="1447.0054" y2="1440.1602">
			<stop  offset="7.092821e-03" style="stop-color:#39C44A"/>
			<stop  offset="0.3723" style="stop-color:#39C94A"/>
			<stop  offset="1" style="stop-color:#004A37"/>
		</linearGradient>
		<polygon class="st9" points="1365.5,894.8 1329,915.3 1200.8,987.2 1194.2,990.9 1181.8,997.9 1177.8,990.9 1145.3,932.9 
			1200.8,901.7 1305.3,843.1 1329,829.8 		"/>
	</g>
	<g>
		<linearGradient id="SVGID_11_" gradientUnits="userSpaceOnUse" x1="643.8469" y1="407.6323" x2="1069.7706" y2="1577.5029">
			<stop  offset="7.092821e-03" style="stop-color:#39C44A"/>
			<stop  offset="0.3723" style="stop-color:#39C94A"/>
			<stop  offset="1" style="stop-color:#004A37"/>
		</linearGradient>
		<path class="st10" d="M1074.6,1179.7l-74.5-43l-0.1-0.1l-0.1,0.1l-74.5,43l-64.6,37.3v87.2l74.5,42.8v-86.9l64.6-37.3l0.1-0.1
			l0.1,0.1l64.6,37.3v86.9l74.5-42.8V1217L1074.6,1179.7z M1064.7,1407.4v104.3L1000,1549l-64.7-37.3v-104.3l-74.5-42.8v190.1
			l139.2,80.4l139.2-80.4v-190.1L1064.7,1407.4z"/>
	</g>
	<g>
		<g>
			<linearGradient id="SVGID_12_" gradientUnits="userSpaceOnUse" x1="387.463" y1="500.9759" x2="813.3868" y2="1670.8466">
				<stop  offset="7.092821e-03" style="stop-color:#39C44A"/>
				<stop  offset="0.3723" style="stop-color:#39C94A"/>
				<stop  offset="1" style="stop-color:#004A37"/>
			</linearGradient>
			<path class="st11" d="M841.7,1353.7c-7.4-47.2-39-86.5-81.6-104.9c-16.7-7.2-35-11.2-54.3-11.2c-14.1,0-27.7,2.1-40.5,6.1
				l44.3,68.6c4.4,0.2,8.8,1,12.9,2.1c18.1,4.9,32.9,17.8,40.6,34.5c3.7,8,5.8,16.9,5.8,26.3c0,7.2-1.2,14.2-3.5,20.6
				c-6.2,17.9-20.3,32.2-38.1,38.6c-6.7,2.5-14,3.8-21.5,3.8c-34.8,0-63.1-28.3-63.1-63.1c0-8,1.5-15.5,4.2-22.5v0l-44.2-68.5
				c-21.5,24.3-34.5,56.2-34.5,91c0,75.9,61.7,137.6,137.6,137.6c36.1,0,69.1-14,93.7-36.9c12.9-12,23.5-26.5,31.1-42.7
				c8.3-17.6,12.9-37.3,12.9-58.1C843.3,1367.8,842.8,1360.7,841.7,1353.7z"/>
		</g>
	</g>
	<g>
		<g>
			<linearGradient id="SVGID_13_" gradientUnits="userSpaceOnUse" x1="330.6707" y1="521.6527" x2="756.5945" y2="1691.5234">
				<stop  offset="7.092821e-03" style="stop-color:#39C44A"/>
				<stop  offset="0.3723" style="stop-color:#39C94A"/>
				<stop  offset="1" style="stop-color:#004A37"/>
			</linearGradient>
			<path class="st12" d="M694.6,1138.8c-0.9-26.7-9.5-51.5-23.6-72.2c-24.8-36.4-66.6-60.4-113.8-60.4
				c-75.9,0-137.6,61.7-137.6,137.6c0,75.9,61.7,137.6,137.6,137.6c13.9,0,27.3-2.1,39.9-5.9l-44.4-68.8h0
				c-32.7-2.3-58.6-29.6-58.6-62.9c0-34.8,28.3-63.1,63.1-63.1c34.8,0,63.1,28.3,63.1,63.1c0,8.2-1.6,16-4.4,23.2l44.1,68.3
				c21.7-24.3,34.9-56.4,34.9-91.5C694.8,1142.1,694.7,1140.4,694.6,1138.8z"/>
		</g>
	</g>
	<g>
		<linearGradient id="SVGID_14_" gradientUnits="userSpaceOnUse" x1="520.5255" y1="452.5308" x2="946.4493" y2="1622.4015">
			<stop  offset="7.092821e-03" style="stop-color:#39C44A"/>
			<stop  offset="0.3723" style="stop-color:#39C94A"/>
			<stop  offset="1" style="stop-color:#004A37"/>
		</linearGradient>
		<polygon class="st13" points="671,1152.1 634.5,1087.1 818.2,983.9 854.7,1048.9 		"/>
	</g>
	<g>
		<g>
			<linearGradient id="SVGID_15_" gradientUnits="userSpaceOnUse" x1="907.1075" y1="311.7849" x2="1333.0313" y2="1481.6556">
				<stop  offset="7.092821e-03" style="stop-color:#39C44A"/>
				<stop  offset="0.3723" style="stop-color:#39C94A"/>
				<stop  offset="1" style="stop-color:#004A37"/>
			</linearGradient>
			<path class="st14" d="M1397.3,1284.1l-44.2,68.5c2.7,7,4.2,14.6,4.2,22.5c0,34.8-28.3,63.1-63.1,63.1c-7.5,0-14.8-1.3-21.5-3.8
				c-17.8-6.5-31.9-20.7-38.1-38.6c-2.3-6.5-3.5-13.4-3.5-20.6c0-9.4,2.1-18.3,5.8-26.3c7.7-16.8,22.6-29.6,40.6-34.5
				c4.1-1.1,8.5-1.9,12.9-2.1l44.2-68.6c-12.8-3.9-26.4-6.1-40.5-6.1c-19.3,0-37.7,4-54.3,11.2c-42.6,18.4-74.2,57.7-81.6,104.9
				c-1.1,7-1.7,14.2-1.7,21.5c0,20.7,4.6,40.4,12.9,58.1c7.5,16.2,18.1,30.6,31.1,42.7c24.6,22.9,57.5,36.9,93.7,36.9
				c75.9,0,137.6-61.7,137.6-137.6C1431.8,1340.3,1418.8,1308.4,1397.3,1284.1z"/>
		</g>
	</g>
	<g>
		<g>
			<linearGradient id="SVGID_16_" gradientUnits="userSpaceOnUse" x1="1112.6724" y1="236.9434" x2="1538.5962" y2="1406.8141">
				<stop  offset="7.092821e-03" style="stop-color:#39C44A"/>
				<stop  offset="0.3723" style="stop-color:#39C94A"/>
				<stop  offset="1" style="stop-color:#004A37"/>
			</linearGradient>
			<path class="st15" d="M1442.8,1006.2c-47.3,0-89.1,24-113.8,60.4c-14.1,20.7-22.7,45.5-23.7,72.2c-0.1,1.6-0.1,3.3-0.1,5
				c0,35.1,13.2,67.2,34.9,91.5l44-68.3c-2.9-7.2-4.4-15-4.4-23.2c0-34.8,28.3-63.1,63.1-63.1c34.8,0,63.1,28.3,63.1,63.1
				c0,33.3-25.9,60.6-58.6,62.9h0l-44.4,68.8c12.6,3.8,26,5.9,39.9,5.9c75.9,0,137.6-61.7,137.6-137.6
				C1580.4,1067.9,1518.7,1006.2,1442.8,1006.2z"/>
		</g>
	</g>
	<linearGradient id="SVGID_17_" gradientUnits="userSpaceOnUse" x1="506.6215" y1="457.5929" x2="932.5453" y2="1627.4636">
		<stop  offset="7.092821e-03" style="stop-color:#39C44A"/>
		<stop  offset="0.3723" style="stop-color:#39C94A"/>
		<stop  offset="1" style="stop-color:#004A37"/>
	</linearGradient>
	<path class="st16" d="M935.3,1407.4v86l-74.5-42.8l-30.3-17.4l-65.2-37.4c2.3-6.5,3.5-13.4,3.5-20.6c0-9.4-2.1-18.3-5.8-26.3
		l17.4-30.3l61.2,35.1l19.1,11L935.3,1407.4z"/>
	<linearGradient id="SVGID_18_" gradientUnits="userSpaceOnUse" x1="765.6835" y1="363.2742" x2="1191.6073" y2="1533.1449">
		<stop  offset="7.092821e-03" style="stop-color:#39C44A"/>
		<stop  offset="0.3723" style="stop-color:#39C94A"/>
		<stop  offset="1" style="stop-color:#004A37"/>
	</linearGradient>
	<path class="st17" d="M1231.2,1375.1c0,7.2,1.2,14.2,3.5,20.6l-65.2,37.4l-30.3,17.4l-74.5,42.8v-86l74.5-42.8l19.1-11l61.2-35.1
		l17.4,30.3C1233.3,1356.9,1231.2,1365.8,1231.2,1375.1z"/>
	<g>
		<linearGradient id="SVGID_19_" gradientUnits="userSpaceOnUse" x1="971.5211" y1="288.3334" x2="1397.4448" y2="1458.2041">
			<stop  offset="7.092821e-03" style="stop-color:#39C44A"/>
			<stop  offset="0.3723" style="stop-color:#39C94A"/>
			<stop  offset="1" style="stop-color:#004A37"/>
		</linearGradient>
		<polygon class="st18" points="1329,1152.1 1145.3,1048.9 1181.8,983.9 1365.5,1087.1 		"/>
	</g>
	<linearGradient id="SVGID_20_" gradientUnits="userSpaceOnUse" x1="332.6201" y1="520.943" x2="758.5439" y2="1690.8137">
		<stop  offset="7.092821e-03" style="stop-color:#39C44A"/>
		<stop  offset="0.3723" style="stop-color:#39C94A"/>
		<stop  offset="1" style="stop-color:#004A37"/>
	</linearGradient>
	<circle class="st19" cx="559.4" cy="1143.8" r="23"/>
	<linearGradient id="SVGID_21_" gradientUnits="userSpaceOnUse" x1="1112.666" y1="236.9457" x2="1538.5898" y2="1406.8164">
		<stop  offset="7.092821e-03" style="stop-color:#39C44A"/>
		<stop  offset="0.3723" style="stop-color:#39C94A"/>
		<stop  offset="1" style="stop-color:#004A37"/>
	</linearGradient>
	<circle class="st20" cx="1442.8" cy="1143.8" r="23"/>
	<linearGradient id="SVGID_22_" gradientUnits="userSpaceOnUse" x1="429.4223" y1="485.6995" x2="855.3461" y2="1655.5702">
		<stop  offset="7.092821e-03" style="stop-color:#39C44A"/>
		<stop  offset="0.3723" style="stop-color:#39C94A"/>
		<stop  offset="1" style="stop-color:#004A37"/>
	</linearGradient>
	<circle class="st21" cx="558" cy="838.7" r="23"/>
	<linearGradient id="SVGID_23_" gradientUnits="userSpaceOnUse" x1="1210.718" y1="201.2471" x2="1636.6418" y2="1371.1178">
		<stop  offset="7.092821e-03" style="stop-color:#39C44A"/>
		<stop  offset="0.3723" style="stop-color:#39C94A"/>
		<stop  offset="1" style="stop-color:#004A37"/>
	</linearGradient>
	<circle class="st22" cx="1442.8" cy="838.7" r="23"/>
	<linearGradient id="SVGID_24_" gradientUnits="userSpaceOnUse" x1="634.4924" y1="411.038" x2="1060.4163" y2="1580.9087">
		<stop  offset="7.092821e-03" style="stop-color:#39C44A"/>
		<stop  offset="0.3723" style="stop-color:#39C94A"/>
		<stop  offset="1" style="stop-color:#004A37"/>
	</linearGradient>
	<circle class="st23" cx="705.7" cy="606.7" r="23"/>
	<linearGradient id="SVGID_25_" gradientUnits="userSpaceOnUse" x1="1154.1349" y1="221.8478" x2="1580.0586" y2="1391.7185">
		<stop  offset="7.092821e-03" style="stop-color:#39C44A"/>
		<stop  offset="0.3723" style="stop-color:#39C94A"/>
		<stop  offset="1" style="stop-color:#004A37"/>
	</linearGradient>
	<circle class="st24" cx="1294.3" cy="606.7" r="23"/>
	<linearGradient id="SVGID_26_" gradientUnits="userSpaceOnUse" x1="387.463" y1="500.9759" x2="813.3868" y2="1670.8466">
		<stop  offset="7.092821e-03" style="stop-color:#39C44A"/>
		<stop  offset="0.3723" style="stop-color:#39C94A"/>
		<stop  offset="1" style="stop-color:#004A37"/>
	</linearGradient>
	<circle class="st25" cx="705.7" cy="1375.2" r="23"/>
	<linearGradient id="SVGID_27_" gradientUnits="userSpaceOnUse" x1="907.1054" y1="311.7857" x2="1333.0292" y2="1481.6564">
		<stop  offset="7.092821e-03" style="stop-color:#39C44A"/>
		<stop  offset="0.3723" style="stop-color:#39C94A"/>
		<stop  offset="1" style="stop-color:#004A37"/>
	</linearGradient>
	<circle class="st26" cx="1294.3" cy="1375.2" r="23"/>
</g>
</svg>
